:SAMPLES-PER-SECOND 30
:FULLY-SPECIFIED
:DEGREES
252
root  5.14858 29.997 12.8419 -4.13264 -70.4808 27.2209
RightUpLeg  -18.2222 -35.9948 -49.4131
RightLeg  -0.871629 -19.0198 -2.16627
RightFoot  43.3265 -8.51463 17.0178
RightToes  -6.40286e-010 0 -3.6325e-017
Spine  39.1639 10.6974 23.4576
Spine1  -20.2101 18.8204 -18.9872
HEad  -2.16332 -48.3097 14.3312
LeftShoulder1  0.116357 14.7361 10.8299
LeftArm  -34.7242 17.706 -11.2642
LeftForeArm  -19.2346 -8.90198 -2.31597
LeftHand  -0.0276239 5.27013 36.2938
RightShoulder  0.0112714 -3.36822 -0.237007
RightArm  -26.5679 -15.5382 -3.77762
RightForeArm  -41.5186 9.15915 2.43585
RightHand  -1.05972 1.22902 -18.6201
LeftUpLeg  -73.2654 21.522 -1.32911
LeftLeg  65.0057 -10.3726 -22.3849
LeftFoot  -15.917 -0.974779 -26.3406
LeftToes  -2.09187e-010 -4.93792e-011 -8.21189e-011
253
root  5.29918 29.6129 12.8593 -4.20424 -71.4497 27.6429
RightUpLeg  -20.3969 -36.7527 -48.9418
RightLeg  1.02555 -17.5796 -2.83403
RightFoot  41.393 -9.85662 20.3593
RightToes  -6.40286e-010 0 -3.6325e-017
Spine  39.4445 11.3994 21.2081
Spine1  -20.0058 18.9046 -15.7028
HEad  -6.05484 -48.6332 15.0986
LeftShoulder1  0.340126 15.3997 12.8919
LeftArm  -36.0307 16.2964 -6.76311
LeftForeArm  -19.7052 -8.77575 -1.77622
LeftHand  0.230064 6.01767 38.4913
RightShoulder  0.0680552 -2.83353 2.03449
RightArm  -26.6049 -20.3625 0.251803
RightForeArm  -39.1668 11.9456 2.86488
RightHand  -1.31332 1.81523 -21.1574
LeftUpLeg  -74.3755 20.3966 0.257035
LeftLeg  66.3993 -8.91031 -20.705
LeftFoot  -16.6937 -1.16004 -26.4927
LeftToes  -2.09187e-010 -4.93792e-011 -8.21189e-011
254
root  5.46544 29.2685 12.7107 -4.59279 -72.7317 28.3474
RightUpLeg  -23.7333 -36.8852 -48.2502
RightLeg  4.55441 -16.3195 -3.74298
RightFoot  38.908 -11.1689 24.176
RightToes  -6.40286e-010 0 -3.6325e-017
Spine  39.8548 11.8015 18.6517
Spine1  -20.1371 18.5214 -11.801
HEad  -7.37618 -47.5285 13.788
LeftShoulder1  0.601595 15.9799 15.1128
LeftArm  -36.5219 14.3761 -2.6552
LeftForeArm  -20.1742 -7.72409 -1.3802
LeftHand  0.570644 6.88582 41.0371
RightShoulder  0.144006 -2.28476 3.92484
RightArm  -27.0999 -25.0095 4.46123
RightForeArm  -36.1251 14.6913 3.63828
RightHand  -1.49184 2.02125 -23.2983
LeftUpLeg  -75.2041 19.6023 2.21604
LeftLeg  67.3465 -7.67752 -18.8092
LeftFoot  -17.0538 -1.27674 -27.1468
LeftToes  -2.09187e-010 -4.93792e-011 -8.21189e-011
255
root  5.6071 28.9645 12.3581 -5.66386 -74.3442 29.6809
RightUpLeg  -27.5202 -35.4998 -48.0815
RightLeg  9.36798 -16.5135 -4.42848
RightFoot  35.7661 -12.3282 28.4412
RightToes  -6.40286e-010 0 -3.6325e-017
Spine  40.3436 11.9792 15.874
Spine1  -20.4776 17.798 -7.83668
HEad  -6.81666 -45.5015 11.2472
LeftShoulder1  0.873694 16.152 17.4682
LeftArm  -36.3909 11.9828 0.830439
LeftForeArm  -20.7754 -6.68755 -1.31713
LeftHand  0.951484 7.76636 43.222
RightShoulder  0.221175 -1.83853 5.59076
RightArm  -27.449 -29.4767 8.87627
RightForeArm  -33.6364 17.2259 4.54665
RightHand  -1.58805 2.07857 -24.5604
LeftUpLeg  -75.6397 19.5128 4.39612
LeftLeg  67.8882 -6.76981 -17.1049
LeftFoot  -16.9129 -1.2839 -27.928
LeftToes  -2.09187e-010 -4.93792e-011 -8.21189e-011
256
root  5.70988 28.7134 11.7917 -8.03319 -76.2611 32.3196
RightUpLeg  -32.3812 -34.6643 -47.3662
RightLeg  14.9503 -15.3783 -4.75647
RightFoot  32.3173 -12.8923 32.0932
RightToes  -6.40286e-010 0 -3.6325e-017
Spine  40.5236 11.9469 12.7752
Spine1  -20.4484 16.7714 -3.93842
HEad  -5.55152 -42.8452 8.50582
LeftShoulder1  1.11849 15.9234 19.8266
LeftArm  -36.562 9.54241 3.34001
LeftForeArm  -20.5398 -6.72283 -1.61982
LeftHand  1.22291 8.34555 44.6224
RightShoulder  0.279422 -1.57963 6.99692
RightArm  -27.4498 -33.5083 13.9762
RightForeArm  -31.7452 19.5764 5.37797
RightHand  -1.6289 2.21687 -24.7282
LeftUpLeg  -75.4534 20.1401 6.64664
LeftLeg  67.7403 -6.12937 -15.3889
LeftFoot  -16.3588 -1.1931 -28.8761
LeftToes  -2.09187e-010 -4.93792e-011 -8.21189e-011
257
root  5.77839 28.5437 11.0187 -11.5386 -78.3979 36.1811
RightUpLeg  -39.4317 -36.3664 -43.8986
RightLeg  20.859 -10.427 -4.5358
RightFoot  28.9438 -12.5148 33.854
RightToes  -6.40286e-010 0 -3.6325e-017
Spine  40.2357 11.5882 9.32161
Spine1  -20.0314 15.3221 0.138096
HEad  -3.44987 -39.644 5.49167
LeftShoulder1  1.30018 15.6069 21.7738
LeftArm  -37.8043 7.01168 4.963
LeftForeArm  -19.0212 -7.98696 -2.08364
LeftHand  1.29748 8.47334 45.2938
RightShoulder  0.305544 -1.50444 7.85276
RightArm  -27.6298 -36.7534 20.4321
RightForeArm  -29.5875 21.7975 5.97276
RightHand  -1.67369 2.58656 -24.2563
LeftUpLeg  -74.5447 21.2099 9.22649
LeftLeg  66.6527 -5.63553 -13.3865
LeftFoot  -15.3301 -0.991774 -30.4423
LeftToes  -2.09187e-010 -4.93792e-011 -8.21189e-011
258
root  5.80485 28.4847 10.053 -15.5086 -80.9007 40.6042
RightUpLeg  -47.4229 -37.9009 -38.6039
RightLeg  26.6493 -5.34254 -3.1262
RightFoot  25.5164 -11.3703 33.8203
RightToes  -6.40286e-010 0 -3.6325e-017
Spine  39.6901 10.8983 5.66049
Spine1  -19.6201 13.4722 4.57479
HEad  -0.12655 -35.5943 1.87147
LeftShoulder1  1.39854 15.3032 23.0213
LeftArm  -40.1798 4.40537 5.89474
LeftForeArm  -16.7654 -10.1419 -2.56313
LeftHand  1.29052 8.41256 45.855
RightShoulder  0.300405 -1.5781 8.21559
RightArm  -28.4724 -38.989 28.0468
RightForeArm  -27.1914 23.7701 6.32674
RightHand  -1.72839 2.98867 -23.8665
LeftUpLeg  -72.7863 22.6993 12.5538
LeftLeg  64.6513 -5.24331 -11.2802
LeftFoot  -13.9314 -0.667738 -32.358
LeftToes  -2.09187e-010 -4.93792e-011 -8.21189e-011
259
root  5.77943 28.5377 8.90931 -21.9944 -84.0065 47.5259
RightUpLeg  -55.4214 -38.3706 -31.6172
RightLeg  31.7677 -1.18988 -1.03584
RightFoot  21.5269 -9.95014 33.4184
RightToes  -6.40286e-010 0 -3.6325e-017
Spine  39.0993 9.98843 1.90729
Spine1  -19.3635 11.3701 9.40437
HEad  3.67798 -30.0841 -1.81537
LeftShoulder1  1.41246 14.8468 23.6982
LeftArm  -42.7669 2.24052 6.23622
LeftForeArm  -14.3113 -12.6681 -3.13378
LeftHand  1.30762 8.40933 46.4216
RightShoulder  0.281441 -1.74104 8.65066
RightArm  -29.2919 -40.0429 35.4281
RightForeArm  -25.6834 25.0632 6.55775
RightHand  -1.73738 3.0728 -23.7593
LeftUpLeg  -69.8618 24.8076 16.838
LeftLeg  61.8183 -4.97305 -9.38375
LeftFoot  -12.4849 -0.275673 -33.9378
LeftToes  -2.09187e-010 -4.93792e-011 -8.21189e-011
260
root  5.71069 28.6912 7.62888 -18.5146 -87.8687 44.4955
RightUpLeg  -62.7425 -37.3784 -23.6062
RightLeg  36.021 1.90852 1.23367
RightFoot  17.3627 -8.54519 33.0447
RightToes  -6.40286e-010 0 -3.6325e-017
Spine  38.4997 8.91467 -1.98175
Spine1  -19.162 9.02409 14.7097
HEad  6.81496 -22.7993 -4.53534
LeftShoulder1  1.37613 14.3096 24.0213
LeftArm  -44.2398 0.78043 6.09295
LeftForeArm  -12.0603 -14.6906 -3.72872
LeftHand  1.2993 8.38599 46.4728
RightShoulder  0.270487 -1.87892 9.43385
RightArm  -28.5499 -40.0243 41.2288
RightForeArm  -25.7917 25.0928 6.56489
RightHand  -1.7015 2.94825 -23.6184
LeftUpLeg  -65.4721 27.3032 22.1462
LeftLeg  57.9353 -4.59354 -7.335
LeftFoot  -10.854 0.219912 -35.4667
LeftToes  -2.09187e-010 -4.93792e-011 -8.21189e-011
